<svg width="40" height="40" viewBox="0 0 40 40" fill="none" xmlns="http://www.w3.org/2000/svg">
<path fill-rule="evenodd" clip-rule="evenodd" d="M20 32.5C26.9036 32.5 32.5 26.9036 32.5 20C32.5 13.0964 26.9036 7.5 20 7.5C13.0964 7.5 7.5 13.0964 7.5 20C7.5 26.9036 13.0964 32.5 20 32.5ZM24.4956 15.5043C23.1565 14.1653 20.9855 14.1653 19.6464 15.5043L19.6464 15.5044L18.7835 16.3673C18.5882 16.5626 18.5882 16.8791 18.7835 17.0744C18.9788 17.2697 19.2953 17.2697 19.4906 17.0744L20.3535 16.2115L20.3535 16.2115C21.3021 15.2629 22.84 15.2629 23.7885 16.2115C24.7371 17.16 24.7371 18.6979 23.7885 19.6465L22.9256 20.5094C22.7303 20.7047 22.7303 21.0212 22.9256 21.2165C23.1209 21.4118 23.4374 21.4118 23.6327 21.2165L24.4956 20.3536C25.8347 19.0145 25.8348 16.8434 24.4956 15.5043ZM21.9068 18.8003C22.1021 18.605 22.1021 18.2884 21.9068 18.0932C21.7116 17.8979 21.395 17.8979 21.1997 18.0932L18.0931 21.1998C17.8979 21.395 17.8979 21.7116 18.0931 21.9069C18.2884 22.1021 18.605 22.1021 18.8003 21.9069L21.9068 18.8003ZM17.0743 19.4906C17.2696 19.2954 17.2696 18.9788 17.0743 18.7835C16.8791 18.5883 16.5625 18.5883 16.3672 18.7835L15.5043 19.6465L15.5043 19.6465C14.1652 20.9856 14.1652 23.1566 15.5043 24.4957C16.8434 25.8348 19.0144 25.8348 20.3535 24.4957L21.2165 23.6327C21.4117 23.4375 21.4117 23.1209 21.2165 22.9256C21.0212 22.7304 20.7046 22.7304 20.5093 22.9256L19.6464 23.7886C18.6978 24.7371 17.16 24.7371 16.2114 23.7886C15.2629 22.84 15.2629 21.3022 16.2114 20.3536L16.2114 20.3536L17.0743 19.4906Z" fill="white"/>
</svg>
